<svg width="260" height="64" viewBox="0 0 260 64" fill="none" xmlns="http://www.w3.org/2000/svg">
  <rect x="4" y="10" width="44" height="44" rx="10" fill="#0B3C5D"/>
  <path d="M18 38h20c2.2 0 4-1.8 4-4v-6c0-2.2-1.8-4-4-4H30l-6-6h-6c-2.2 0-4 1.8-4 4v12c0 2.2 1.8 4 4 4Z" fill="#F4A300"/>
  <circle cx="22" cy="40" r="4" fill="#1F7A5C"/>
  <circle cx="36" cy="40" r="4" fill="#1F7A5C"/>
  <path d="M64 44V20h12.8c3.2 0 5.8.9 7.7 2.7 1.9 1.8 2.9 4.3 2.9 7.3 0 3-1 5.5-2.9 7.3-1.9 1.8-4.5 2.7-7.7 2.7H72.6V44H64Zm8.6-11.2h3.8c1.5 0 2.7-.3 3.5-1 .8-.7 1.2-1.6 1.2-2.8 0-1.2-.4-2.1-1.2-2.8-.8-.7-2-.9-3.5-.9h-3.8v7.5Z" fill="#0B3C5D"/>
  <path d="M94.7 44V20h8.6v17h10.3V44H94.7Z" fill="#0B3C5D"/>
  <path d="M125 44.7c-3.4 0-6.2-1.1-8.4-3.2-2.2-2.2-3.3-4.9-3.3-8.1 0-3.2 1.1-5.9 3.3-8 2.2-2.2 5-3.3 8.4-3.3 3.4 0 6.2 1.1 8.4 3.3 2.2 2.1 3.3 4.8 3.3 8 0 3.2-1.1 5.9-3.3 8.1-2.2 2.1-5 3.2-8.4 3.2Zm0-7c1.2 0 2.2-.4 3-1.3.8-.9 1.2-2 1.2-3.3 0-1.3-.4-2.4-1.2-3.3-.8-.9-1.8-1.3-3-1.3s-2.2.4-3 1.3c-.8.9-1.2 2-1.2 3.3 0 1.3.4 2.4 1.2 3.3.8.9 1.8 1.3 3 1.3Z" fill="#0B3C5D"/>
  <path d="M150.7 44.7c-2.8 0-5.2-.8-7.2-2.4-2-1.6-3-3.7-3-6.4h7.8c0 .9.3 1.6.9 2.1.6.5 1.4.8 2.4.8 1 0 1.8-.2 2.3-.6.6-.4.9-1 .9-1.6 0-.7-.3-1.2-1-1.6-.7-.4-2-.9-3.9-1.4-2.5-.7-4.4-1.6-5.7-2.8-1.3-1.2-2-2.9-2-5 0-2.4 1-4.3 2.9-5.8 1.9-1.5 4.3-2.2 7.2-2.2 3 0 5.5.8 7.4 2.3 1.9 1.6 2.9 3.7 2.9 6.3h-7.8c0-.9-.3-1.6-.8-2.1-.6-.5-1.3-.8-2.2-.8-.9 0-1.6.2-2.1.6-.5.4-.8.9-.8 1.5 0 .6.3 1.1.9 1.5.6.4 1.8.9 3.6 1.4 2.7.7 4.7 1.6 6 2.8 1.3 1.2 2 2.9 2 5.1 0 2.5-1 4.5-3 6-2 1.5-4.5 2.3-7.7 2.3Z" fill="#0B3C5D"/>
  <path d="M171.4 44V27.3h-6.1V20h20.8v7.3H179V44h-7.6Z" fill="#0B3C5D"/>
  <path d="M187.8 44V20h12.8c3.2 0 5.8.9 7.7 2.7 1.9 1.8 2.9 4.3 2.9 7.3 0 3-1 5.5-2.9 7.3-1.9 1.8-4.5 2.7-7.7 2.7h-4.2V44h-8.6Zm8.6-11.2h3.8c1.5 0 2.7-.3 3.5-1 .8-.7 1.2-1.6 1.2-2.8 0-1.2-.4-2.1-1.2-2.8-.8-.7-2-.9-3.5-.9h-3.8v7.5Z" fill="#0B3C5D"/>
</svg>
