<?xml version="1.0" standalone="no"?>
<!DOCTYPE svg PUBLIC "-//W3C//DTD SVG 20010904//EN"
 "http://www.w3.org/TR/2001/REC-SVG-20010904/DTD/svg10.dtd">
<svg version="1.0" xmlns="http://www.w3.org/2000/svg"
 width="500.000000pt" height="500.000000pt" viewBox="0 0 500.000000 500.000000"
 preserveAspectRatio="xMidYMid meet">

<g transform="translate(0.000000,500.000000) scale(0.100000,-0.100000)"
fill="#F4A300" stroke="none">
<path d="M1565 3749 c-55 -5 -134 -16 -175 -25 -86 -19 -123 -50 -179 -147
-17 -30 -42 -62 -55 -71 -29 -18 -42 -52 -27 -69 11 -14 -49 -189 -65 -187 -5
0 -8 34 -8 76 l1 75 -35 -3 c-33 -3 -37 -6 -45 -43 -4 -22 -7 -58 -5 -80 3
-37 5 -40 37 -45 l35 -5 -44 -29 c-78 -52 -95 -74 -95 -129 0 -47 -1 -49 -40
-68 -62 -30 -69 -43 -78 -127 -16 -155 -11 -206 21 -216 16 -5 59 -75 50 -81
-2 -1 -52 -7 -113 -14 -92 -10 -235 -31 -242 -36 -1 0 5 -39 13 -85 8 -47 24
-136 35 -197 10 -62 28 -164 38 -225 11 -62 32 -180 46 -262 14 -82 27 -152
30 -154 3 -3 42 0 87 7 598 89 1044 121 1683 121 427 0 932 -24 1160 -54 22
-3 85 -10 140 -16 175 -19 458 -57 487 -66 13 -4 18 3 22 28 99 588 137 821
133 824 -7 7 -135 33 -217 45 -132 18 -421 38 -547 39 -68 0 -123 2 -123 5 0
3 20 30 44 59 45 55 86 147 86 191 0 75 -80 168 -184 215 -120 54 -339 111
-481 125 l-60 6 82 -28 c108 -37 173 -82 173 -121 0 -48 -68 -99 -185 -140
-105 -36 -333 -89 -467 -108 l-48 -6 0 31 c0 35 -8 31 140 55 151 25 169 32
186 72 17 40 22 141 11 195 -7 35 -22 46 -265 207 -142 94 -266 174 -275 178
-16 6 -17 -12 -15 -257 l3 -264 100 -8 c55 -4 163 -11 240 -16 l140 -8 -185
-1 c-102 -1 -236 1 -297 5 l-113 6 -1 256 c0 141 -4 306 -7 367 l-7 112 27
-19 c14 -10 30 -19 35 -19 4 0 21 -18 36 -40 16 -22 70 -71 120 -109 51 -38
156 -118 234 -177 142 -109 142 -109 192 -106 67 5 251 -23 486 -74 263 -57
578 -189 796 -333 52 -34 98 -63 104 -64 10 -2 19 68 30 248 l6 100 -83 73
c-46 40 -110 97 -143 127 -33 30 -66 55 -75 55 -8 -1 -44 -18 -80 -40 l-65
-39 -40 23 c-22 12 -52 30 -67 40 -30 19 -29 20 -54 -54 l-18 -55 -30 67 c-17
38 -34 68 -38 68 -3 0 -34 -23 -67 -51 -34 -28 -61 -48 -61 -45 0 8 129 248
138 258 4 4 62 -40 129 -97 113 -98 144 -117 157 -97 2 4 -41 48 -96 97 -55
50 -121 109 -147 132 -25 23 -52 43 -59 43 -12 0 -253 -182 -373 -282 -53 -43
-65 -46 -74 -18 l-7 21 -34 -20 c-19 -11 -34 -18 -34 -15 0 11 50 103 59 109
6 3 29 -6 52 -20 29 -19 44 -24 52 -16 6 6 9 12 6 14 -20 17 -120 67 -133 67
-9 0 -53 -24 -99 -53 -45 -29 -112 -72 -150 -96 l-67 -43 -57 48 c-32 27 -65
54 -73 61 -132 104 -207 166 -319 263 -73 63 -144 121 -158 129 -52 28 -335
45 -498 30z m405 -48 c0 -5 -9 -12 -19 -16 -20 -6 -100 -87 -117 -118 -10 -18
-14 -18 -94 -1 -69 14 -115 15 -254 10 -94 -3 -189 -9 -210 -12 l-40 -7 36 49
c22 29 47 51 64 56 41 11 210 37 269 41 118 8 365 6 365 -2z m117 -473 c-1
-68 -3 -13 -3 122 0 135 2 190 3 123 2 -68 2 -178 0 -245z m-365 311 c29 -6
60 -18 68 -27 8 -10 48 -24 90 -32 l75 -15 0 -90 0 -90 -40 -13 c-22 -7 -85
-24 -140 -38 -120 -30 -142 -37 -221 -75 -57 -28 -110 -66 -101 -75 2 -2 21 5
43 15 99 48 262 89 308 77 55 -14 27 -38 -85 -77 -95 -32 -194 -78 -186 -85 2
-2 27 3 57 11 67 18 159 19 180 2 19 -15 50 -58 50 -70 0 -5 -12 1 -26 12 -54
43 -110 12 -135 -74 -11 -36 -17 -44 -42 -48 -29 -4 -29 -4 -24 38 4 22 9 49
13 59 7 17 2 18 -67 11 -77 -7 -99 -20 -99 -59 0 -28 -11 -42 -37 -50 -28 -9
-28 -6 -8 97 8 43 15 98 15 122 0 41 -2 44 -32 50 -17 4 -124 4 -237 0 l-206
-7 24 26 c14 15 46 40 71 56 43 28 57 30 220 45 96 8 233 15 305 15 l131 0 31
88 c49 137 48 130 16 139 -49 14 -313 7 -422 -10 -75 -12 -108 -13 -118 -6
-20 17 1 46 39 55 135 30 397 42 490 23z m2200 -341 c26 -40 45 -74 43 -76 -1
-2 -22 9 -46 24 -46 28 -41 29 -106 -14 -25 -16 -28 -8 -13 32 8 21 6 25 -13
28 -19 3 -15 8 28 40 28 20 52 37 55 37 3 0 26 -32 52 -71z m-2546 -112 c3 -2
-25 -177 -34 -215 -6 -29 -14 -36 -41 -44 -37 -9 -326 -6 -335 4 -8 8 -36 175
-36 217 0 23 5 32 18 33 153 12 416 15 428 5z m1882 -62 c34 -16 40 -24 20
-24 -13 0 -68 39 -57 40 3 0 20 -7 37 -16z m76 -60 c10 -26 7 -34 -14 -34 -11
0 -20 4 -20 9 0 5 -3 16 -6 25 -4 11 0 16 14 16 11 0 23 -7 26 -16z m-1760
-61 c-8 -49 -27 -63 -82 -63 l-45 0 6 36 c9 53 23 64 79 64 l49 0 -7 -37z
m-664 8 c0 -5 3 -23 6 -40 l7 -31 -52 0 -51 0 0 40 0 40 45 0 c25 0 45 -4 45
-9z m2430 -29 c0 -36 -24 -55 -58 -47 l-32 7 21 29 c24 34 69 41 69 11z
m-1186 -10 c3 -5 2 -40 -1 -79 l-6 -70 -71 -11 c-39 -7 -108 -15 -153 -18 -70
-6 -83 -5 -83 8 0 17 92 28 227 28 l73 0 0 55 0 55 -140 0 c-133 0 -140 1
-140 20 0 19 7 20 144 20 80 0 147 -4 150 -8z m-380 -37 c11 -16 16 -46 16
-89 0 -73 -15 -116 -40 -116 -33 0 -45 29 -44 109 0 110 31 153 68 96z m528
-15 c12 -59 -7 -140 -33 -140 -24 0 -33 137 -12 173 11 19 38 0 45 -33z m112
-2 c12 -90 -27 -155 -47 -78 -13 52 0 120 23 120 15 0 20 -10 24 -42z m-803
-31 c-15 -15 -812 -18 -818 -2 -2 6 49 9 144 7 82 -1 267 1 413 5 146 5 267 7
269 5 3 -1 -1 -8 -8 -15z m1648 -23 c-65 -68 -84 -77 -146 -69 l-56 7 44 26
c24 14 58 36 74 49 21 16 43 23 74 23 l45 0 -35 -36z m-1739 -114 c0 -15 -9
-17 -180 -30 -85 -6 -170 -14 -188 -17 -29 -5 -33 -3 -30 13 3 17 19 20 123
30 164 15 275 16 275 4z m1559 -10 c20 0 8 -10 -54 -47 -78 -47 -83 -48 -180
-53 -55 -4 -107 -3 -115 2 -13 6 -13 7 1 8 15 0 104 37 194 81 28 14 53 18 84
14 24 -3 55 -5 70 -5z m-839 -36 c0 -12 -95 -46 -182 -63 -87 -18 -379 -38
-366 -26 3 3 59 14 124 25 65 10 177 29 249 40 71 12 132 23 134 26 6 6 41 5
41 -2z m937 -208 c55 -28 77 -70 78 -151 0 -78 -15 -126 -54 -168 -42 -46 -79
-59 -182 -64 l-97 -6 -6 -36 c-3 -20 -6 -57 -6 -83 l0 -48 -81 0 -80 0 5 43
c3 23 10 130 16 237 6 107 13 219 16 249 l6 54 177 -5 c136 -4 184 -9 208 -22z
m-1957 -46 l0 -60 -125 0 -125 0 0 -45 0 -45 109 0 c61 0 113 -4 116 -10 3 -5
3 -32 -1 -60 l-7 -50 -102 0 c-72 0 -106 -4 -113 -13 -6 -7 -13 -60 -14 -118
l-3 -104 -75 0 c-71 0 -75 1 -74 23 0 12 1 139 2 282 l2 260 205 0 205 0 0
-60z m198 -142 c-1 -112 -4 -238 -6 -280 l-4 -78 -70 0 -70 0 7 268 c4 147 10
270 14 274 8 8 45 15 94 17 l38 1 -3 -202z m731 130 l-3 -63 58 -3 58 -3 -6
-31 c-3 -17 -6 -39 -6 -49 0 -16 -8 -19 -55 -19 l-55 0 0 -91 c0 -115 7 -129
65 -129 l45 0 0 -49 c0 -46 -1 -49 -31 -55 -55 -11 -129 -7 -159 9 -54 28 -60
47 -60 187 l0 127 -27 3 c-26 3 -28 7 -31 51 -3 46 -3 47 27 47 30 0 30 1 33
58 l3 57 55 6 c30 3 63 6 73 7 16 2 18 -5 16 -60z m-326 -82 c61 -30 91 -85
95 -172 9 -162 -67 -243 -226 -244 -138 0 -222 78 -222 206 0 101 40 177 112
213 55 27 182 26 241 -3z m795 4 c54 -33 72 -74 72 -165 0 -44 -3 -117 -7
-162 l-6 -83 -69 0 -70 0 7 31 7 30 -47 -35 c-40 -31 -54 -36 -101 -36 -47 0
-59 4 -90 33 -26 23 -37 43 -40 72 -11 89 55 145 199 167 42 7 77 17 77 22 0
5 -7 18 -17 28 -12 13 -31 18 -75 18 -33 0 -67 -4 -76 -9 -9 -4 -29 -11 -44
-15 -28 -6 -28 -6 -28 47 l0 54 43 10 c23 6 85 11 137 12 79 1 101 -3 128 -19z
m1395 -9 c55 -34 77 -84 77 -174 0 -113 -42 -191 -125 -228 -50 -23 -177 -26
-227 -4 -52 21 -95 76 -104 130 -19 129 35 244 136 290 54 24 195 16 243 -14z
m-563 -21 l0 -41 38 41 c34 35 45 40 82 40 l43 0 -7 -52 c-3 -29 -6 -63 -6
-75 0 -21 -5 -23 -52 -23 -79 -1 -100 -21 -109 -106 -5 -38 -8 -93 -8 -121
l-1 -53 -70 0 -70 0 0 58 c0 31 5 128 12 215 l12 157 68 0 68 0 0 -40z"/>
<path d="M1788 3440 c-6 -14 -19 -54 -30 -90 -11 -36 -22 -73 -25 -82 -6 -21
16 -24 63 -9 16 5 41 12 57 15 27 6 27 6 27 95 l0 89 -41 4 c-36 3 -42 1 -51
-22z"/>
<path d="M1088 3073 l-138 -4 0 -24 c0 -24 3 -25 58 -25 31 0 121 3 200 7 138
6 143 7 140 27 -3 24 -14 25 -260 19z"/>
<path d="M1067 3013 c-103 -3 -118 -6 -113 -19 3 -9 6 -20 6 -24 0 -5 26 -11
58 -13 l57 -3 -57 -2 c-39 -1 -58 -6 -58 -14 0 -22 14 -36 40 -41 24 -4 24 -4
-3 -6 -21 -1 -28 -5 -25 -18 3 -16 21 -18 176 -21 l172 -2 0 24 c0 24 -3 25
-67 29 l-68 3 73 2 c56 2 72 5 72 17 0 8 0 18 0 23 0 4 -37 10 -82 13 l-83 5
88 2 c86 2 87 2 87 27 0 25 -1 25 -77 23 -43 -1 -131 -4 -196 -5z"/>
<path d="M1726 2788 c-15 -58 -1 -128 23 -114 12 8 15 93 5 120 -9 23 -21 20
-28 -6z"/>
<path d="M2260 2776 c0 -48 15 -69 25 -36 8 25 -3 80 -16 80 -5 0 -9 -20 -9
-44z"/>
<path d="M2380 2787 c0 -30 4 -46 10 -42 13 8 13 55 0 75 -7 11 -10 2 -10 -33z"/>
<path d="M2930 2231 c0 -33 -3 -66 -6 -74 -8 -21 27 -30 87 -22 62 9 89 35 89
86 0 56 -19 69 -101 69 l-69 0 0 -59z"/>
<path d="M1644 2159 c-15 -17 -19 -36 -19 -99 0 -63 4 -82 19 -99 24 -27 79
-28 105 -2 36 36 39 164 3 204 -22 25 -84 23 -108 -4z"/>
<path d="M2460 2022 c-43 -21 -54 -64 -20 -82 42 -22 110 22 110 72 0 24 -4
28 -27 28 -16 0 -44 -8 -63 -18z"/>
<path d="M3827 2169 c-49 -28 -67 -174 -27 -217 22 -23 68 -29 99 -12 46 24
64 178 27 219 -21 23 -69 28 -99 10z"/>
<path d="M3821 2827 c112 -88 147 -119 180 -161 22 -27 38 -50 36 -52 -2 -2
-30 1 -63 6 -32 5 -89 14 -125 20 -37 5 -82 11 -100 11 -20 1 -26 3 -15 6 15
4 16 7 5 13 -9 6 -20 -3 -37 -32 -30 -50 -25 -54 82 -63 45 -3 115 -10 156
-15 41 -5 122 -14 180 -20 58 -6 141 -15 185 -20 192 -22 205 -23 205 -7 0 15
-21 20 -154 33 -62 6 -72 10 -99 41 -17 19 -58 54 -93 79 -91 65 -415 217
-343 161z"/>
<path d="M1890 1660 c-312 -22 -531 -50 -770 -97 -118 -23 -139 -29 -129 -36
2 -2 90 -21 195 -42 l190 -38 170 41 c184 44 220 51 399 82 202 35 452 66 615
76 70 5 105 10 90 14 -35 10 -622 9 -760 0z"/>
</g>
</svg>
